<svg width="26" height="23" viewBox="0 0 26 23" fill="none" xmlns="http://www.w3.org/2000/svg"><path d="M9.904 23a2.295 2.295 0 01-2.286-2.3c0-1.268 1.025-2.3 2.286-2.3a2.295 2.295 0 012.285 2.3c0 1.268-1.025 2.3-2.285 2.3z" fill="#00A54D"/><path d="M9.904 21.466a.765.765 0 01-.762-.766c0-.423.342-.767.762-.767s.762.344.762.767a.765.765 0 01-.762.767zM20.671 23a2.296 2.296 0 01-2.285-2.3c0-1.268 1.025-2.3 2.285-2.3a2.295 2.295 0 012.286 2.3c0 1.268-1.026 2.3-2.286 2.3z" fill="#00A54D"/><path d="M20.671 21.466a.765.765 0 01-.762-.766c0-.423.342-.767.762-.767s.762.344.762.767a.765.765 0 01-.762.767zm2.407-3.833c0 .43-.335.767-.761.767H7.74a2.29 2.29 0 01-2.285-2.3 2.27 2.27 0 011.98-2.27c.092-.03.199-.03.305-.03.183 0 .366.077.488.2l-.457 1.333h-.03a.757.757 0 00-.763.767c0 .43.336.767.762.767h14.577c.426 0 .761.337.761.766zM5.056 3.068c.048.062.869.435 1.695.8.003-.066.011-.132-.004-.2L6.077.603A.762.762 0 005.333 0H.762A.764.764 0 000 .767c0 .423.34.766.762.766H4.72l.336 1.535z" fill="#00A54D"/><path d="M23.078 17.633c0 .43-.335.767-.761.767H15.15v-1.533h7.167c.426 0 .761.337.761.766zm2.774-14.26a.749.749 0 00-.61-.306H5.06L7.435 13.83l.336 1.502h14.424c.335 0 .64-.23.731-.552l3.047-10.733a.809.809 0 00-.121-.675z" fill="#00A54D"/><path d="M25.973 4.048L22.926 14.78a.769.769 0 01-.731.552H15.15V3.067h10.092a.75.75 0 01.61.306.809.809 0 01.121.675z" fill="#00A54D"/></svg>