<svg width="25" height="25" fill="none" xmlns="http://www.w3.org/2000/svg"><path d="M25 16.919a8.106 8.106 0 00-4.445-7.218C20.472 15.65 15.649 20.472 9.7 20.555A8.106 8.106 0 0016.92 25a8.052 8.052 0 004.112-1.123l3.934 1.088-1.088-3.934A8.052 8.052 0 0025 16.919z" fill="#00A54D"/><path d="M19.092 9.546C19.092 4.282 14.81 0 9.546 0 4.282 0 0 4.282 0 9.546c0 1.715.457 3.386 1.324 4.852L.035 19.057l4.659-1.289a9.516 9.516 0 004.852 1.324c5.264 0 9.546-4.282 9.546-9.546zM8.082 7.324H6.615a2.933 2.933 0 012.93-2.93 2.933 2.933 0 012.93 2.93 2.94 2.94 0 01-.953 2.162l-1.245 1.14v1.142H8.813V9.98l1.72-1.575a1.466 1.466 0 00-.988-2.546c-.807 0-1.464.657-1.464 1.465zm.731 5.908h1.465v1.465H8.813v-1.465z" fill="#00A54D"/></svg>