<svg xmlns="http://www.w3.org/2000/svg" xmlns:xlink="http://www.w3.org/1999/xlink"><symbol id="arrow-down-bg-icon"><path d="M1 1l4.5 4L10 1" stroke="#00A54D" stroke-width="1.5"/></symbol><symbol id="arrow-down-icon"><path d="M1 1l4.5 4L10 1" stroke-width="1.5"/></symbol><symbol id="arrow-icon" viewBox="0 0 16 11">
<path d="M5.21928 0.16544C5.44484 -0.0551466 5.79995 -0.0551466 6.02551 0.16544C6.24345 0.378574 6.24345 0.7333 6.02551 0.945937L1.93747 4.94382L15.4275 4.94382C15.7419 4.94382 16 5.18825 16 5.49578C16 5.80331 15.7419 6.05569 15.4275 6.05569L1.93747 6.05569L6.02551 10.0461C6.24345 10.2667 6.24345 10.6219 6.02551 10.8346C5.79995 11.0551 5.44484 11.0551 5.21928 10.8346L0.163456 5.89025C-0.0544853 5.67711 -0.0544853 5.32239 0.163456 5.10975L5.21928 0.16544Z"/>
</symbol><symbol id="basket-icon" viewBox="0 0 26 23"><path d="M9.904 23a2.295 2.295 0 01-2.286-2.3c0-1.268 1.025-2.3 2.286-2.3a2.295 2.295 0 012.285 2.3c0 1.268-1.025 2.3-2.285 2.3z" fill="#00A54D"/><path d="M9.904 21.466a.765.765 0 01-.762-.766c0-.423.342-.767.762-.767s.762.344.762.767a.765.765 0 01-.762.767zM20.671 23a2.296 2.296 0 01-2.285-2.3c0-1.268 1.025-2.3 2.285-2.3a2.295 2.295 0 012.286 2.3c0 1.268-1.026 2.3-2.286 2.3z" fill="#00A54D"/><path d="M20.671 21.466a.765.765 0 01-.762-.766c0-.423.342-.767.762-.767s.762.344.762.767a.765.765 0 01-.762.767zm2.407-3.833c0 .43-.335.767-.761.767H7.74a2.29 2.29 0 01-2.285-2.3 2.27 2.27 0 011.98-2.27c.092-.03.199-.03.305-.03.183 0 .366.077.488.2l-.457 1.333h-.03a.757.757 0 00-.763.767c0 .43.336.767.762.767h14.577c.426 0 .761.337.761.766zM5.056 3.068c.048.062.869.435 1.695.8.003-.066.011-.132-.004-.2L6.077.603A.762.762 0 005.333 0H.762A.764.764 0 000 .767c0 .423.34.766.762.766H4.72l.336 1.535z" fill="#00A54D"/><path d="M23.078 17.633c0 .43-.335.767-.761.767H15.15v-1.533h7.167c.426 0 .761.337.761.766zm2.774-14.26a.749.749 0 00-.61-.306H5.06L7.435 13.83l.336 1.502h14.424c.335 0 .64-.23.731-.552l3.047-10.733a.809.809 0 00-.121-.675z" fill="#00A54D"/><path d="M25.973 4.048L22.926 14.78a.769.769 0 01-.731.552H15.15V3.067h10.092a.75.75 0 01.61.306.809.809 0 01.121.675z" fill="#00A54D"/></symbol><symbol id="check-icon"><path d="M1 3.979L3.891 6 8 1" stroke="#00A54D"/></symbol><symbol id="list-icon"><path d="M6 1h18v2H6zM0 0h4v4H0zm6 7h18v2H6zM0 6h4v4H0zm6 7h18v2H6zm-6-1h4v4H0z"/></symbol><symbol id="login-icon" viewBox="0 0 22 26"><path d="M10.928 12.058a6.029 6.029 0 100-12.058 6.029 6.029 0 000 12.058zm0 2.033C4.892 14.091 0 18.984 0 25.02h21.855c0-6.035-4.892-10.928-10.928-10.928z" fill="#00A54D"/></symbol><symbol id="question-icon"><path d="M25 16.919a8.106 8.106 0 00-4.445-7.218C20.472 15.65 15.649 20.472 9.7 20.555A8.106 8.106 0 0016.92 25a8.052 8.052 0 004.112-1.123l3.934 1.088-1.088-3.934A8.052 8.052 0 0025 16.919z" fill="#00A54D"/><path d="M19.092 9.546C19.092 4.282 14.81 0 9.546 0 4.282 0 0 4.282 0 9.546c0 1.715.457 3.386 1.324 4.852L.035 19.057l4.659-1.289a9.516 9.516 0 004.852 1.324c5.264 0 9.546-4.282 9.546-9.546zM8.082 7.324H6.615a2.933 2.933 0 012.93-2.93 2.933 2.933 0 012.93 2.93 2.94 2.94 0 01-.953 2.162l-1.245 1.14v1.142H8.813V9.98l1.72-1.575a1.466 1.466 0 00-.988-2.546c-.807 0-1.464.657-1.464 1.465zm.731 5.908h1.465v1.465H8.813v-1.465z" fill="#00A54D"/></symbol><symbol id="search-icon" viewBox="0 0 22 23"><path d="M21.666 20.95l-5.424-5.694a9.308 9.308 0 002.159-5.97C18.4 4.166 14.273 0 9.2 0 4.126 0 0 4.166 0 9.286c0 5.12 4.127 9.287 9.2 9.287 1.905 0 3.72-.58 5.271-1.68l5.465 5.736c.228.239.535.371.865.371.311 0 .607-.12.831-.338a1.22 1.22 0 00.034-1.713zM9.2 2.422c3.75 0 6.8 3.078 6.8 6.863 0 3.785-3.05 6.864-6.8 6.864S2.4 13.07 2.4 9.285c0-3.785 3.05-6.864 6.8-6.864z" fill="#606060"/></symbol><symbol id="tile-icon" viewBox="0 0 33 33"><path d="M9 8h4v4H9zm6 0h4v4h-4zm6 0h4v4h-4zm0 6h4v4h-4zm-6 0h4v4h-4zm-6 0h4v4H9zm12 6h4v4h-4zm-6 0h4v4h-4zm-6 0h4v4H9z"/></symbol></svg>